<svg version="1.2" xmlns="http://www.w3.org/2000/svg" viewBox="0 0 200 121" width="200" height="121">
	<title>logo_weiss-svg</title>
	<style>
		.s0 { fill: #051d3d } 
		.s1 { fill: #666666 } 
	</style>
	<g id="Layer">
		<path id="Layer" fill-rule="evenodd" class="s0" d="m23.8 58.2q-1.7 4.5-3.2 9.1q7.2-0.7 14.5 0.5c2.6 0.4 5.8 6.3 1.6 5.6c-4.9-0.8-9.7-0.8-14.5-0.1c2.7 1.7 5 4.7 5.1 8c0.4 7.7-7.4 15.2-13.3 19.1c-1 0.7-2.4 0.2-3.3-0.5c-6-5.1-2.8-12.5-1.1-19.1q0.8-3.1 1.6-6.2q-0.1 0-0.2-0.1c-1-0.7-3.8-4.2-1.4-4.9q1.7-0.6 3.4-1q1.8-5.7 3.8-11.2q4.2-11.6 9.7-22.6q2.7-5.6 5.8-11.1c1.5-2.6 3.1-5.4 6.3-5.9c2.6-0.5 6.9 5.2 4.2 5.7c-3.4 0.6-4.8 4.3-6.2 7q-2.4 4.5-4.7 9q-4.4 9.2-8.1 18.7zm-6.3 18.9q-0.2 0.5-0.3 1q-1.4 4.9-2.6 9.8q-0.4 1.8-0.8 3.5c3.1-2.9 5.9-6.3 7.1-10.2c0.5-1.3 1-2.7 0.2-3.4c-0.7-0.5-2.8-0.6-3.6-0.7z" />
		<path id="Layer" class="s0" d="m186.4 66.5c-1.2 0.1-2.3-0.8-3.2-1.7c-1.4 0-4.7 2.4-5.5 3c-1.6 1.3-3.1 2.7-4.5 4.2c-3.1 3.3-5.7 7-7.6 11.1c-1.3 2.9-6.7-1.8-5.7-4.2q1.1-3 2.3-6c-6.5 4.2-13.1 8.2-20.2 10.7c-3.7 1.3-7.5 1.6-10.1-1.9c-4-5.3 1.2-13.2 4.9-17.2c3.3-3.6 9.1-7.7 13.5-3.1c6.3 6.5-8.5 12.3-12.5 14.2q0 0 0 0q-0.6 1.2-0.9 2.5c6.3-0.9 21.4-8.1 28.4-13.2q1.1-2.8 2.1-5.6c0.8-2.3 4.8 0.4 5.7 2.8c5-3.8 10.5-5 14.3 1.5c0.7 1.2 0.5 2.7-1 2.9z" />
		<path id="Layer" fill-rule="evenodd" class="s0" d="m149.1 19.7c-11.3 22.3-22.6 44.7-30.6 68.4c-1 2.9-6.6-1.7-5.8-4.2q2.5-7.2 5.3-14.3c-5.6 6-12.1 11.1-20.2 14c-2.4 0.9-5.5-2.8-5-5q0.3-1.2 0.7-2.4c-2.8 1.7-5.8 3-8.7 3.9c-3.4 1-6.7 1.6-9.2-1.4c-2.4-2.7-2.9-6-2.4-9.4q-1.5 1.8-3.2 3.6c-4.6 4.9-10.5 9.7-17.4 11c-4 0.7-8.9 0.3-11.5-3.3c-3.2-4.4 0.8-10.9 3.6-14.5c2.5-3.1 5.9-6.7 10.2-6.7c3.2-0.1 7.4 3 6.3 6.6c-0.6 1.7-2.6 3.1-4.1 4.1c-3.1 2.1-6.5 3.8-9.9 5.5q-0.3 0.5-0.5 1.1c-0.1 0.2-0.3 0.9-0.5 1.6c2.8 0.1 6.2-1.1 8.9-2.6c6.4-3.5 11.5-9.4 15.7-15.3c6.5-9.2 11.4-19.5 15.5-30q0.9-2.2 1.7-4.4q0.2-0.5 0.4-1.1q0-0.1 0.1-0.2q3.9-10.1 8.1-20.1c1.2-2.9 6.8 1.7 5.8 4.2q-4.6 10.9-8.9 22q-0.9 2.3-1.8 4.6q-1.6 4.4-3.2 8.7q-3.1 8.8-6.1 17.6c-1 2.9-4 9-3.6 13c5-1 13.6-4.4 20.2-9.3c1.3-1.6 2.8-3.1 4.4-4.3c3.9-2.9 8.8-2.6 12.1 0.3q0.6-0.7 1.1-1.4c10.7-13.6 19-29.2 26.8-44.5q0-0.2 0.1-0.3c0.3-0.4 0.8-0.6 1.3-0.6q0 0 0 0q0.3 0 0.7 0.1c1.8 0.5 4 2.9 3.7 4.5q0 0.2-0.1 0.5zm-103.3 61.2q0-0.1-0.1-0.3q0 0.2 0.1 0.3zm12.2-15.6q0.2 0 0.4-0.1c0.2-0.1-0.3 0-0.4 0q0 0 0 0.1zm54.6-0.5q-0.2 0-0.3-0.1q-0.7 0.1-1.3 0.2c-1.2 0.3-2.3 1.2-3.3 2c-1.5 1.2-2.8 2.7-4 4.3q-1 1.4-1.9 3c4.1-2.5 7.6-5.8 10.8-9.4z" />
	</g>
	<g id="Layer">
		<path id="Layer" fill-rule="evenodd" class="s1" d="m131.7 108.4c0-3 2.4-4.6 8-5.2c-0.1-1.2-0.7-2-2.3-2c-1.2 0-2.4 0.5-3.7 1.2l-1.5-2.7c1.8-1.1 3.8-1.9 6-1.9c3.7 0 5.7 2.1 5.7 6.4v8.1h-3.5l-0.3-1.4h-0.1c-1.2 1-2.5 1.8-4.1 1.8c-2.6 0-4.2-1.9-4.2-4.3zm8-0.2v-2.5c-3 0.4-4 1.3-4 2.4c0 0.9 0.6 1.3 1.6 1.3c1 0 1.6-0.5 2.4-1.2z" />
		<path id="Layer" class="s1" d="m147.4 107.9v-15.6h4.2v15.8c0 0.9 0.4 1.2 0.7 1.2c0.2 0 0.3 0 0.6-0.1l0.5 3.1c-0.5 0.2-1.2 0.3-2.1 0.3c-2.9 0.1-3.9-1.8-3.9-4.7z" />
		<path id="Layer" fill-rule="evenodd" class="s1" d="m159 98.2l0.3 1.4h0.1c1.1-1 2.6-1.8 4-1.8c3.5 0 5.6 2.9 5.6 7.2c0 4.9-2.9 7.7-6 7.7c-1.2 0-2.3-0.6-3.4-1.5l0.2 2.2v4.2h-4.2v-19.4zm5.7 6.9c0-2.6-0.8-3.9-2.5-3.9c-0.9 0-1.6 0.4-2.4 1.3v5.8c0.7 0.7 1.5 0.9 2.2 0.9c1.5 0 2.7-1.2 2.7-4.1z" />
		<path id="Layer" class="s1" d="m174 96.1c-1.3 0-2.4-1-2.4-2.2c0-1.2 1.1-2.2 2.4-2.2c1.4 0 2.5 1 2.5 2.2c0 1.2-1.1 2.2-2.5 2.2zm-2.1 2.1h4.2v14.1h-4.2z" />
		<path id="Layer" class="s1" d="m179.8 98.2h3.5l0.3 1.7h0.1c1.2-1.1 2.6-2.1 4.5-2.1c3.1 0 4.4 2.2 4.4 5.7v8.8h-4.2v-8.2c0-2.1-0.5-2.7-1.7-2.7c-1.1 0-1.8 0.5-2.7 1.4v9.5h-4.2v-14.1z" />
	</g>
</svg>